<svg id="レイヤー_1" data-name="レイヤー 1" xmlns="http://www.w3.org/2000/svg" viewBox="0 0 625.61 282.9"><defs><style>.cls-1{fill:#2d302e;}</style></defs><g id="Ryokan"><path class="cls-1" d="M309.57,119.32V46.64h40.6v7.71H319.88V78.71h25.43v7.61H319.88v33Z" transform="translate(0 1.55)"/><path class="cls-1" d="M389.07,119.32v-10q-7.71,11.25-18.71,11.24-7,0-11.09-4.39t-4.13-11.86V66h9.68v35.16q0,6,1.74,8.52c1.16,1.68,3.1,2.53,5.82,2.53q8.83,0,16.69-11.64V66h9.68v53.33Z" transform="translate(0 1.55)"/><path class="cls-1" d="M400.91,137.43v-7.66q6.76,2.85,10.31,2.85,5.1,0,6.77-2.65t1.67-10.65V66h9.73v53.33q0,20.56-17.39,20.57A29.26,29.26,0,0,1,400.91,137.43Zm18.75-81.12V46.64h9.73v9.67Z" transform="translate(0 1.55)"/><path class="cls-1" d="M444.71,56.31V46.64h9.67v9.67Zm0,63V66h9.67v53.33Z" transform="translate(0 1.55)"/></g><g id="Ryokan-2"><path class="cls-1" d="M309.57,221V148.29h22q10.47,0,16,4.61t5.57,13.41q0,14.53-14.68,20.62l24.26,34H350.08L329.4,190.22h-9.62V221Zm10.21-38.45h3.34q19.44,0,19.44-15.27,0-11.24-16.3-11.24h-6.48Z" transform="translate(0 1.55)"/><path class="cls-1" d="M374.53,240.36l8.64-19.4-20.62-53.32H373l15.27,40.16,16.3-40.16h9.14L384.6,240.36Z" transform="translate(0 1.55)"/><path class="cls-1" d="M440.83,222.19q-11.44,0-18.27-7.59t-6.83-20.3q0-12.87,6.85-20.36t18.59-7.48q11.73,0,18.59,7.48t6.84,20.26q0,13.06-6.87,20.52T440.83,222.19Zm.14-7.27q15.38,0,15.37-20.72,0-20.47-15.17-20.48T426.05,194.3q0,20.63,14.95,20.62Z" transform="translate(0 1.55)"/><path class="cls-1" d="M475.69,221V143.43h9.68v50.08L508,167.64h10.41l-21.56,24.89,26,28.43H510.46l-25.09-27.35V221Z" transform="translate(0 1.55)"/><path class="cls-1" d="M558,214.19q-8.7,8-16.75,8a15.35,15.35,0,0,1-11-4.15,13.83,13.83,0,0,1-4.37-10.48,15,15,0,0,1,7.34-13.43q7.35-4.69,21-4.69h2.31V183q0-9.28-9.52-9.29-7.66,0-16.55,4.72v-8a48.75,48.75,0,0,1,18.31-4q8.94,0,13.19,4T566.2,183v24.15q0,8.31,5.1,8.3a13,13,0,0,0,1.87-.19l.69,5.35a16.73,16.73,0,0,1-7.27,1.57Q559.81,222.2,558,214.19Zm-1.43-5.26v-13.8l-3.24-.09q-8,0-12.86,3t-5,8a7.92,7.92,0,0,0,2.45,5.89,8.26,8.26,0,0,0,6,2.4q6,0,12.56-5.36Z" transform="translate(0 1.55)"/><path class="cls-1" d="M582,221V167.64h9.68v10q7.65-11.19,18.75-11.19,6.93,0,11.05,4.39t4.13,11.81V221h-9.68V185.8q0-5.94-1.74-8.47c-1.16-1.68-3.09-2.53-5.77-2.53q-8.89,0-16.74,11.64V221Z" transform="translate(0 1.55)"/></g><polygon class="cls-1" points="147.49 177.01 120.42 122 106.23 152.09 84.77 126.33 68.52 157.54 62.47 136.43 66.31 135.33 69.61 146.8 84 119.15 105.29 144.71 120.34 112.79 146.63 166.2 167.23 99.27 188.85 144.77 204.14 127.04 219.02 151.35 221.65 140.9 225.53 141.88 220.57 161.55 203.59 133.8 187.87 152.03 168.03 110.28 147.49 177.01"/><path class="cls-1" d="M26.36,217.74,22.75,216,93.1,70.28H193.88l.54,1.16c.46,1,46.72,101,65.71,144.21l-3.67,1.61c-17.86-40.62-59.89-131.64-65.1-143H95.61Z" transform="translate(0 1.55)"/><path class="cls-1" d="M141.45,281.35C63.45,281.35,0,217.9,0,139.9S63.45-1.55,141.45-1.55,282.9,61.9,282.9,139.9,219.45,281.35,141.45,281.35Zm0-278.9C65.66,2.45,4,64.11,4,139.9S65.66,277.35,141.45,277.35,278.9,215.69,278.9,139.9,217.24,2.45,141.45,2.45Z" transform="translate(0 1.55)"/></svg>