<svg id="レイヤー_1" data-name="レイヤー 1" xmlns="http://www.w3.org/2000/svg" viewBox="0 0 281 281"><defs><style>.cls-1{fill:#fff;}</style></defs><g id="楕円形_1" data-name="楕円形 1"><path class="cls-1" d="M173.84,281c-77.47,0-140.5-63-140.5-140.5S96.37,0,173.84,0s140.5,63,140.5,140.5S251.31,281,173.84,281Zm0-280C96.92,1,34.34,63.58,34.34,140.5S96.92,280,173.84,280s139.5-62.58,139.5-139.5S250.76,1,173.84,1Z" transform="translate(-33.34)"/><path class="cls-1" d="M173.84,280.5c-77.2,0-140-62.8-140-140S96.64.5,173.84.5s140,62.8,140,140S251,280.5,173.84,280.5Zm0-276c-75,0-136,61-136,136s61,136,136,136,136-61,136-136S248.83,4.5,173.84,4.5Z" transform="translate(-33.34)"/></g><polygon class="cls-1" points="146.79 170.98 119.72 115.97 105.53 146.06 84.07 120.3 67.82 151.51 61.77 130.4 65.61 129.3 68.91 140.77 83.3 113.12 104.58 138.68 119.64 106.76 145.93 160.17 166.53 93.24 188.15 138.74 203.44 121.01 218.32 145.32 220.95 134.87 224.83 135.85 219.87 155.52 202.89 127.77 187.17 146 167.33 104.25 146.79 170.98"/><path class="cls-1" d="M59,213.26l-3.61-1.74L125.74,65.8H226.52l.54,1.16c.46,1,46.72,101,65.71,144.21l-3.67,1.61C271.24,172.16,229.21,81.14,224,69.8H128.25Z" transform="translate(-33.34)"/></svg>